<svg width="1392" height="851" viewBox="0 0 1392 851" fill="none" xmlns="http://www.w3.org/2000/svg">
<g clip-path="url(#clip0_0_13)">
<path d="M273.705 6.157C275.2 6.157 276.411 4.94573 276.411 3.45155C276.411 1.95737 275.2 0.746094 273.705 0.746094C272.211 0.746094 271 1.95737 271 3.45155C271 4.94573 272.211 6.157 273.705 6.157Z" fill="#F7F6FF"/>
</g>
<g opacity="0.674391">
<g clip-path="url(#clip1_0_13)">
<path d="M107.504 352.086C109.682 352.631 111.383 354.332 111.928 356.51L113.973 364.69C114.124 365.296 114.669 365.721 115.293 365.721C115.918 365.721 116.462 365.296 116.613 364.69L118.658 356.51C119.203 354.332 120.904 352.631 123.082 352.086L131.262 350.041C131.868 349.89 132.293 349.346 132.293 348.721C132.293 348.097 131.868 347.552 131.262 347.401L123.082 345.356C120.904 344.811 119.203 343.11 118.658 340.932L116.613 332.752C116.462 332.146 115.918 331.721 115.293 331.721C114.669 331.721 114.124 332.146 113.973 332.752L111.928 340.932C111.383 343.11 109.682 344.811 107.504 345.356L99.3239 347.401C98.7181 347.552 98.2932 348.097 98.2932 348.721C98.2932 349.346 98.7181 349.89 99.3239 350.041L107.504 352.086Z" stroke="white" stroke-width="2"/>
</g>
</g>
<g clip-path="url(#clip2_0_13)">
<path d="M98.0582 236.116C100.299 236.116 102.116 234.299 102.116 232.058C102.116 229.817 100.299 228 98.0582 228C95.8169 228 94 229.817 94 232.058C94 234.299 95.8169 236.116 98.0582 236.116Z" fill="#F7F6FF"/>
</g>
<g opacity="0.674391">
<g clip-path="url(#clip3_0_13)">
<path d="M253.048 679.561C255.227 680.106 256.928 681.807 257.472 683.985L259.517 692.165C259.669 692.771 260.213 693.196 260.837 693.196C261.462 693.196 262.006 692.771 262.158 692.165L264.203 683.985C264.747 681.807 266.448 680.106 268.627 679.561L276.807 677.516C277.412 677.365 277.837 676.821 277.837 676.196C277.837 675.572 277.412 675.028 276.807 674.876L268.627 672.831C266.448 672.286 264.747 670.586 264.203 668.407L262.158 660.227C262.006 659.621 261.462 659.196 260.837 659.196C260.213 659.196 259.669 659.621 259.517 660.227L257.472 668.407C256.928 670.586 255.227 672.286 253.048 672.831L244.868 674.876C244.262 675.028 243.837 675.572 243.837 676.196C243.837 676.821 244.262 677.365 244.868 677.516L253.048 679.561Z" stroke="white" stroke-width="2"/>
</g>
</g>
<g clip-path="url(#clip4_0_13)">
<path d="M316.896 849.313C319.137 849.313 320.954 847.496 320.954 845.254C320.954 843.013 319.137 841.196 316.896 841.196C314.654 841.196 312.837 843.013 312.837 845.254C312.837 847.496 314.654 849.313 316.896 849.313Z" fill="#F7F6FF"/>
</g>
<circle cx="220.984" cy="597.214" r="3.16401" fill="#D9D9D9"/>
<circle cx="435.842" cy="366.362" r="3.16401" fill="#D9D9D9"/>
<circle cx="511.328" cy="13.328" r="6.32801" fill="#D9D9D9"/>
<circle cx="3.16401" cy="693.836" r="3.16401" fill="#D9D9D9" fill-opacity="0.3"/>
<path d="M660.24 519.436C657.889 519.934 655.455 519.095 653.91 517.255L648.106 510.346C647.676 509.834 646.954 509.68 646.353 509.973C645.752 510.266 645.428 510.93 645.566 511.584L647.436 520.412C647.933 522.763 647.095 525.196 645.255 526.742L638.345 532.546C637.834 532.975 637.68 533.698 637.973 534.299C638.266 534.9 638.93 535.224 639.584 535.085L648.411 533.216C650.762 532.719 653.196 533.557 654.742 535.397L660.545 542.307C660.975 542.818 661.698 542.972 662.299 542.679C662.899 542.386 663.224 541.722 663.085 541.068L661.216 532.24C660.718 529.89 661.557 527.456 663.397 525.91L670.306 520.106C670.818 519.677 670.972 518.954 670.679 518.353C670.386 517.752 669.722 517.428 669.068 517.567L660.24 519.436Z" fill="#F7F6FF"/>
<g opacity="0.674391">
<g clip-path="url(#clip5_0_13)">
<path d="M1236.6 524.475C1234.36 524.546 1232.26 523.374 1231.14 521.426L1226.94 514.115C1226.63 513.573 1225.99 513.313 1225.39 513.483C1224.79 513.654 1224.38 514.211 1224.4 514.835L1224.67 523.263C1224.74 525.507 1223.56 527.608 1221.62 528.726L1214.3 532.925C1213.76 533.236 1213.5 533.876 1213.67 534.477C1213.84 535.077 1214.4 535.485 1215.03 535.465L1223.45 535.201C1225.7 535.13 1227.8 536.303 1228.92 538.25L1233.12 545.562C1233.43 546.103 1234.07 546.363 1234.67 546.193C1235.27 546.023 1235.68 545.465 1235.66 544.841L1235.39 536.414C1235.32 534.169 1236.49 532.069 1238.44 530.95L1245.75 526.751C1246.29 526.44 1246.55 525.8 1246.38 525.2C1246.21 524.599 1245.66 524.191 1245.03 524.211L1236.6 524.475Z" stroke="white" stroke-width="2"/>
</g>
</g>
<g clip-path="url(#clip6_0_13)">
<path d="M1173.55 565.483C1171.4 566.095 1170.14 568.339 1170.76 570.495C1171.37 572.651 1173.61 573.903 1175.77 573.292C1177.92 572.68 1179.18 570.437 1178.56 568.28C1177.95 566.124 1175.71 564.872 1173.55 565.483Z" fill="#F7F6FF"/>
</g>
<g opacity="0.674391">
<g clip-path="url(#clip7_0_13)">
<path d="M1034.73 358.48C1032.48 358.55 1030.38 357.378 1029.27 355.431L1025.07 348.119C1024.75 347.577 1024.12 347.317 1023.51 347.487C1022.91 347.658 1022.51 348.215 1022.53 348.839L1022.79 357.267C1022.86 359.511 1021.69 361.612 1019.74 362.73L1012.43 366.929C1011.89 367.24 1011.63 367.88 1011.8 368.481C1011.97 369.081 1012.53 369.489 1013.15 369.47L1021.58 369.205C1023.82 369.135 1025.92 370.307 1027.04 372.254L1031.24 379.566C1031.55 380.107 1032.19 380.368 1032.79 380.197C1033.39 380.027 1033.8 379.47 1033.78 378.845L1033.52 370.418C1033.45 368.173 1034.62 366.073 1036.56 364.955L1043.88 360.755C1044.42 360.444 1044.68 359.805 1044.51 359.204C1044.34 358.603 1043.78 358.195 1043.16 358.215L1034.73 358.48Z" stroke="white" stroke-width="2"/>
</g>
</g>
<g clip-path="url(#clip8_0_13)">
<path d="M926.987 212.59C924.831 213.202 923.579 215.445 924.19 217.602C924.802 219.758 927.045 221.01 929.202 220.399C931.358 219.787 932.61 217.543 931.998 215.387C931.387 213.231 929.143 211.979 926.987 212.59Z" fill="#F7F6FF"/>
</g>
<circle cx="1387.55" cy="449.621" r="3.16401" transform="rotate(164.166 1387.55 449.621)" fill="#D9D9D9"/>
<circle cx="1019.91" cy="564.907" r="3.16401" transform="rotate(164.166 1019.91 564.907)" fill="#D9D9D9"/>
<circle cx="1001.36" cy="677.177" r="3.16401" transform="rotate(164.166 1001.36 677.177)" fill="#D9D9D9"/>
<circle cx="1040.35" cy="684.207" r="6.32801" transform="rotate(164.166 1040.35 684.207)" fill="#D9D9D9"/>
<path d="M1210.88 114.932C1213.01 113.812 1215.58 113.954 1217.56 115.303L1225.03 120.367C1225.59 120.742 1226.32 120.692 1226.82 120.246C1227.32 119.801 1227.45 119.073 1227.14 118.482L1222.93 110.499C1221.81 108.373 1221.95 105.803 1223.3 103.814L1228.37 96.3455C1228.74 95.7924 1228.69 95.055 1228.25 94.557C1227.8 94.0591 1227.07 93.9283 1226.48 94.2399L1218.5 98.4469C1216.37 99.5672 1213.8 99.4246 1211.81 98.0761L1204.35 93.0122C1203.79 92.6372 1203.05 92.6867 1202.56 93.1323C1202.06 93.578 1201.93 94.3053 1202.24 94.8965L1206.45 102.879C1207.57 105.005 1207.42 107.576 1206.08 109.565L1201.01 117.033C1200.64 117.586 1200.69 118.324 1201.13 118.822C1201.58 119.32 1202.31 119.45 1202.9 119.139L1210.88 114.932Z" fill="#F7F6FF"/>
<path d="M62.4891 514.279V685.135" stroke="white" stroke-opacity="0.2" stroke-width="5"/>
<path d="M202 405V575.856" stroke="white" stroke-opacity="0.2" stroke-width="5"/>
<path d="M845.581 220.026V390.882" stroke="white" stroke-opacity="0.2" stroke-width="5"/>
<path d="M1321 339.75V510.607" stroke="white" stroke-opacity="0.2" stroke-width="5"/>
<path d="M1321 142V238.502" stroke="white" stroke-opacity="0.2" stroke-width="5"/>
<defs>
<clipPath id="clip0_0_13">
<rect width="6" height="6" fill="white" transform="translate(271 0.746094)"/>
</clipPath>
<clipPath id="clip1_0_13">
<rect width="36" height="36" fill="white" transform="translate(97.2932 330.721)"/>
</clipPath>
<clipPath id="clip2_0_13">
<rect width="9" height="9" fill="white" transform="translate(94 228)"/>
</clipPath>
<clipPath id="clip3_0_13">
<rect width="36" height="36" fill="white" transform="translate(242.837 658.196)"/>
</clipPath>
<clipPath id="clip4_0_13">
<rect width="9" height="9" fill="white" transform="translate(312.837 841.196)"/>
</clipPath>
<clipPath id="clip5_0_13">
<rect width="36" height="36" fill="white" transform="translate(1252.26 542.244) rotate(164.166)"/>
</clipPath>
<clipPath id="clip6_0_13">
<rect width="9" height="9" fill="white" transform="translate(1179.67 572.185) rotate(164.166)"/>
</clipPath>
<clipPath id="clip7_0_13">
<rect width="36" height="36" fill="white" transform="translate(1050.38 376.248) rotate(164.166)"/>
</clipPath>
<clipPath id="clip8_0_13">
<rect width="9" height="9" fill="white" transform="translate(933.106 219.291) rotate(164.166)"/>
</clipPath>
</defs>
</svg>
