<svg width="50" height="48" viewBox="0 0 50 48" fill="none" xmlns="http://www.w3.org/2000/svg">
<path d="M12.3163 16.9299H1.80831C1.36189 16.9299 1 17.2918 1 17.7382V28.2462C1 28.6926 1.36189 29.0545 1.80831 29.0545H12.3163C12.7627 29.0545 13.1246 28.6926 13.1246 28.2462V17.7382C13.1246 17.2918 12.7627 16.9299 12.3163 16.9299Z" stroke="#79EFBD" stroke-width="2"/>
<path d="M12.3163 34.7126H1.80831C1.36189 34.7126 1 35.0745 1 35.521V46.0289C1 46.4754 1.36189 46.8373 1.80831 46.8373H12.3163C12.7627 46.8373 13.1246 46.4754 13.1246 46.0289V35.521C13.1246 35.0745 12.7627 34.7126 12.3163 34.7126Z" stroke="#79EFBD" stroke-width="2"/>
<path d="M30.099 34.7126H19.5911C19.1446 34.7126 18.7827 35.0745 18.7827 35.521V46.0289C18.7827 46.4754 19.1446 46.8373 19.5911 46.8373H30.099C30.5455 46.8373 30.9073 46.4754 30.9073 46.0289V35.521C30.9073 35.0745 30.5455 34.7126 30.099 34.7126Z" stroke="#79EFBD" stroke-width="2"/>
<path fill-rule="evenodd" clip-rule="evenodd" d="M22.7057 16.1296H19.5911C18.6982 16.1296 17.9745 16.8534 17.9745 17.7463V28.2542C17.9745 29.147 18.6982 29.8709 19.5911 29.8709H30.0991C30.9919 29.8709 31.7157 29.147 31.7157 28.2542V26.459C29.6018 26.0599 27.582 25.0469 25.9458 23.42C23.9098 21.3956 22.8298 18.7806 22.7057 16.1296Z" fill="#F7F6FF"/>
<path d="M41.6486 23.4199C45.9848 19.1084 45.9848 12.1181 41.6486 7.80664C37.3124 3.49515 30.282 3.49515 25.9458 7.80664C21.6096 12.1181 21.6096 19.1084 25.9458 23.4199C30.282 27.7314 37.3124 27.7314 41.6486 23.4199Z" stroke="#F7F6FF" stroke-width="3.08943"/>
<path d="M40.22 23.0007L48.5332 31.2666" stroke="#F7F6FF" stroke-width="3.08943"/>
</svg>
