<svg width="63" height="43" viewBox="0 0 63 43" fill="none" xmlns="http://www.w3.org/2000/svg">
<path d="M9.8 5.60034H1.8C1.35817 5.60034 1 5.95851 1 6.40034V14.4003C1 14.8422 1.35817 15.2003 1.8 15.2003H9.8C10.2418 15.2003 10.6 14.8422 10.6 14.4003V6.40034C10.6 5.95851 10.2418 5.60034 9.8 5.60034Z" stroke="#79EFBD" stroke-width="1.6"/>
<path d="M61 36.0005H57C56.5581 36.0005 56.2 36.3587 56.2 36.8005V40.8005C56.2 41.2423 56.5581 41.6005 57 41.6005H61C61.4418 41.6005 61.8 41.2423 61.8 40.8005V36.8005C61.8 36.3587 61.4418 36.0005 61 36.0005Z" stroke="#79EFBD" stroke-width="1.6"/>
<mask id="mask0_0_142" style="mask-type:alpha" maskUnits="userSpaceOnUse" x="18" y="8" width="33" height="31">
<path d="M19.3204 10.7103V36.491C19.3204 37.0183 19.7479 37.4458 20.2753 37.4458H48.9205C49.4478 37.4458 49.8753 37.0183 49.8753 36.491V10.7103C49.8753 10.183 49.4478 9.75548 48.9205 9.75548L20.2753 9.75548C19.7479 9.75548 19.3204 10.183 19.3204 10.7103Z" fill="#C4C4C4" stroke="#79EFBD" stroke-width="1.90968"/>
</mask>
<g mask="url(#mask0_0_142)">
<path d="M34.6 27.2004C38.1346 27.2004 41 24.335 41 20.8004C41 17.2658 38.1346 14.4004 34.6 14.4004C31.0653 14.4004 28.2 17.2658 28.2 20.8004C28.2 24.335 31.0653 27.2004 34.6 27.2004Z" fill="#F7F6FF"/>
<path d="M34.6 56.0005C42.111 56.0005 48.2 49.9116 48.2 42.4005C48.2 34.8895 42.111 28.8005 34.6 28.8005C27.0889 28.8005 21 34.8895 21 42.4005C21 49.9116 27.0889 56.0005 34.6 56.0005Z" fill="#F7F6FF"/>
<path d="M19.3204 10.7103V36.491C19.3204 37.0183 19.7479 37.4458 20.2753 37.4458H48.9205C49.4478 37.4458 49.8753 37.0183 49.8753 36.491V10.7103C49.8753 10.183 49.4478 9.75548 48.9205 9.75548L20.2753 9.75548C19.7479 9.75548 19.3204 10.183 19.3204 10.7103Z" stroke="#F7F6FF" stroke-width="1.90968"/>
</g>
<path fill-rule="evenodd" clip-rule="evenodd" d="M56.09 0.721464C55.3928 -0.240488 53.9593 -0.240488 53.262 0.721464C52.8172 1.33522 52.0272 1.5919 51.3066 1.35684C50.1771 0.988416 49.0174 1.83098 49.0188 3.01903C49.0196 3.77702 48.5314 4.44902 47.8102 4.68246C46.6799 5.0483 46.2369 6.41158 46.9364 7.37198C47.3826 7.9847 47.3826 8.81534 46.9364 9.42806C46.2369 10.3884 46.6799 11.7517 47.8102 12.1176C48.5314 12.3509 49.0196 13.0229 49.0188 13.7809C49.0174 14.969 50.1771 15.8116 51.3066 15.4432C52.0272 15.2081 52.8172 15.4648 53.262 16.0785C53.9593 17.0405 55.3928 17.0405 56.09 16.0785C56.5348 15.4648 57.3248 15.2081 58.0455 15.4432C59.1749 15.8116 60.3346 14.969 60.3332 13.7809C60.3324 13.0229 60.8206 12.3509 61.5418 12.1176C62.6721 11.7517 63.1151 10.3884 62.4156 9.42806C61.9694 8.81534 61.9694 7.9847 62.4156 7.37198C63.1151 6.41158 62.6721 5.0483 61.5418 4.68246C60.8206 4.44902 60.3324 3.77702 60.3332 3.01903C60.3346 1.83098 59.1749 0.988416 58.0455 1.35684C57.3248 1.5919 56.5348 1.33522 56.09 0.721464ZM58.749 6.69518C59.0688 6.38838 59.0795 5.88046 58.7728 5.56054C58.466 5.2407 57.958 5.23006 57.6382 5.53678L53.6627 9.34886L52.2407 8.10454C51.9072 7.8127 51.4002 7.84654 51.1084 8.18006C50.8165 8.51358 50.8504 9.02054 51.1839 9.31238L53.1591 11.0407C53.4722 11.3146 53.9427 11.3039 54.2429 11.016L58.749 6.69518Z" fill="#79EFBD"/>
<path d="M13.8 32.0005H7.39999V38.4005H13.8V32.0005Z" fill="#79EFBD"/>
</svg>
