<svg width="39" height="44" viewBox="0 0 39 44" fill="none" xmlns="http://www.w3.org/2000/svg">
<path fill-rule="evenodd" clip-rule="evenodd" d="M3.51884 7.66133C2.65791 7.78487 2 8.50971 2 9.37947V25.7269C2 33.8402 16.1294 42.1499 19.5 42.1499C22.8715 42.1499 37 33.8402 37 25.7269V9.37947C37 8.50971 36.3421 7.78487 35.4811 7.66133C33.3583 7.35677 30.5454 6.77409 27.6474 5.66105C24.5224 4.4599 22.024 3.16979 20.3812 2.23331C19.8351 1.92194 19.1652 1.92232 18.6191 2.2339C16.9779 3.17034 14.4784 4.46015 11.3563 5.66105C8.45535 6.77409 5.64189 7.35677 3.51884 7.66133Z" stroke="#F7F6FF" stroke-width="2.35038"/>
<path fill-rule="evenodd" clip-rule="evenodd" d="M19.5 30.0027C23.9564 30.0027 27.5691 26.3901 27.5691 21.9336C27.5691 17.4772 23.9564 13.8645 19.5 13.8645C15.0436 13.8645 11.4309 17.4772 11.4309 21.9336C11.4309 26.3901 15.0436 30.0027 19.5 30.0027ZM23.691 20.0054C23.934 19.7553 23.9282 19.3555 23.678 19.1125C23.4279 18.8695 23.0281 18.8752 22.7851 19.1254L18.6123 23.4207L16.19 21.1878C15.9336 20.9515 15.534 20.9677 15.2977 21.2241C15.0613 21.4806 15.0776 21.8801 15.334 22.1164L18.2087 24.7662C18.4604 24.9982 18.851 24.9874 19.0896 24.7419L23.691 20.0054Z" fill="#79EFBD"/>
</svg>
