<svg width="1317" height="806" viewBox="0 0 1317 806" fill="none" xmlns="http://www.w3.org/2000/svg">
<g opacity="0.5">
<g clip-path="url(#clip0_0_61)">
<path d="M380.171 27.3523C381.666 27.3523 382.877 26.141 382.877 24.6469C382.877 23.1527 381.666 21.9414 380.171 21.9414C378.677 21.9414 377.466 23.1527 377.466 24.6469C377.466 26.141 378.677 27.3523 380.171 27.3523Z" fill="#F7F6FF"/>
</g>
<g opacity="0.674391">
<g clip-path="url(#clip1_0_61)">
<path d="M195.211 132.365C197.389 132.91 199.09 134.611 199.635 136.789L201.68 144.969C201.831 145.575 202.376 146 203 146C203.624 146 204.169 145.575 204.32 144.969L206.365 136.789C206.91 134.611 208.611 132.91 210.789 132.365L218.969 130.32C219.575 130.169 220 129.624 220 129C220 128.376 219.575 127.831 218.969 127.68L210.789 125.635C208.611 125.09 206.91 123.389 206.365 121.211L204.32 113.031C204.169 112.425 203.624 112 203 112C202.376 112 201.831 112.425 201.68 113.031L199.635 121.211C199.09 123.389 197.389 125.09 195.211 125.635L187.031 127.68C186.425 127.831 186 128.376 186 129C186 129.624 186.425 130.169 187.031 130.32L195.211 132.365Z" stroke="white" stroke-width="2"/>
</g>
</g>
<g clip-path="url(#clip2_0_61)">
<path d="M397.508 133.379C399.749 133.379 401.566 131.562 401.566 129.32C401.566 127.079 399.749 125.262 397.508 125.262C395.266 125.262 393.449 127.079 393.449 129.32C393.449 131.562 395.266 133.379 397.508 133.379Z" fill="#F7F6FF"/>
</g>
<g clip-path="url(#clip3_0_61)">
<path d="M247.058 805.117C249.299 805.117 251.116 803.3 251.116 801.058C251.116 798.817 249.299 797 247.058 797C244.817 797 243 798.817 243 801.058C243 803.3 244.817 805.117 247.058 805.117Z" fill="#F7F6FF"/>
</g>
<circle cx="87.1275" cy="242.082" r="2.6275" fill="#D9D9D9"/>
<circle cx="2.6275" cy="133.628" r="2.6275" fill="#D9D9D9"/>
<circle cx="656.628" cy="401.628" r="2.6275" fill="#D9D9D9"/>
<circle cx="15.255" cy="393.255" r="5.25499" fill="#D9D9D9"/>
<circle cx="7.6275" cy="656.628" r="2.6275" fill="#D9D9D9" fill-opacity="0.3"/>
<path d="M664.113 143.479C662.16 143.893 660.139 143.196 658.856 141.668L654.036 135.93C653.679 135.505 653.079 135.378 652.58 135.621C652.081 135.864 651.812 136.416 651.927 136.959L653.479 144.29C653.893 146.242 653.196 148.263 651.668 149.547L645.93 154.366C645.505 154.723 645.378 155.323 645.621 155.822C645.864 156.321 646.416 156.59 646.959 156.475L654.29 154.923C656.242 154.51 658.263 155.206 659.546 156.734L664.366 162.472C664.723 162.897 665.323 163.024 665.822 162.781C666.321 162.538 666.59 161.986 666.475 161.444L664.923 154.113C664.51 152.16 665.206 150.139 666.734 148.856L672.472 144.036C672.897 143.679 673.024 143.079 672.781 142.58C672.538 142.081 671.986 141.812 671.444 141.927L664.113 143.479Z" fill="#F7F6FF"/>
<g opacity="0.674391">
<g clip-path="url(#clip4_0_61)">
<path d="M1296.19 571.754C1293.94 571.825 1291.84 570.652 1290.72 568.705L1286.52 561.393C1286.21 560.852 1285.57 560.592 1284.97 560.762C1284.37 560.932 1283.96 561.49 1283.98 562.114L1284.25 570.542C1284.32 572.786 1283.15 574.886 1281.2 576.005L1273.89 580.204C1273.35 580.515 1273.09 581.155 1273.26 581.755C1273.43 582.356 1273.98 582.764 1274.61 582.744L1283.04 582.48C1285.28 582.409 1287.38 583.582 1288.5 585.529L1292.7 592.84C1293.01 593.382 1293.65 593.642 1294.25 593.472C1294.85 593.302 1295.26 592.744 1295.24 592.12L1294.97 583.692C1294.9 581.448 1296.08 579.348 1298.02 578.229L1305.33 574.03C1305.88 573.719 1306.14 573.079 1305.97 572.479C1305.8 571.878 1305.24 571.47 1304.61 571.49L1296.19 571.754Z" stroke="white" stroke-width="2"/>
</g>
</g>
<g clip-path="url(#clip5_0_61)">
<path d="M1233.14 612.762C1230.98 613.374 1229.73 615.617 1230.34 617.774C1230.95 619.93 1233.19 621.182 1235.35 620.571C1237.51 619.959 1238.76 617.715 1238.15 615.559C1237.54 613.403 1235.29 612.151 1233.14 612.762Z" fill="#F7F6FF"/>
</g>
<g opacity="0.674391">
<g clip-path="url(#clip6_0_61)">
<path d="M945.187 96.7542C942.942 96.8246 940.842 95.6524 939.723 93.7052L935.524 86.3935C935.213 85.852 934.573 85.5916 933.973 85.762C933.372 85.9324 932.964 86.4898 932.984 87.1139L933.248 95.5416C933.319 97.7859 932.147 99.8864 930.199 101.005L922.888 105.204C922.346 105.515 922.086 106.155 922.256 106.755C922.427 107.356 922.984 107.764 923.608 107.744L932.036 107.48C934.28 107.409 936.381 108.582 937.499 110.529L941.698 117.84C942.009 118.382 942.649 118.642 943.25 118.472C943.85 118.302 944.258 117.744 944.238 117.12L943.974 108.692C943.904 106.448 945.076 104.348 947.023 103.229L954.335 99.0299C954.876 98.7188 955.137 98.0792 954.966 97.4785C954.796 96.8778 954.238 96.4701 953.614 96.4897L945.187 96.7542Z" stroke="white" stroke-width="2"/>
</g>
</g>
<circle cx="1313.24" cy="320.245" r="2.6275" transform="rotate(164.166 1313.24 320.245)" fill="#D9D9D9"/>
<circle cx="1188.24" cy="274.245" r="2.6275" transform="rotate(164.166 1188.24 274.245)" fill="#D9D9D9"/>
<circle cx="998.995" cy="579.245" r="2.6275" transform="rotate(164.166 998.995 579.245)" fill="#D9D9D9"/>
<circle cx="1031.38" cy="585.082" r="5.25499" transform="rotate(164.166 1031.38 585.082)" fill="#D9D9D9"/>
<path d="M1196.17 220.178C1197.93 219.248 1200.07 219.366 1201.72 220.486L1207.92 224.691C1208.38 225.003 1208.99 224.962 1209.41 224.592C1209.82 224.222 1209.93 223.618 1209.67 223.127L1206.18 216.497C1205.25 214.732 1205.37 212.598 1206.49 210.946L1210.69 204.744C1211 204.284 1210.96 203.672 1210.59 203.258C1210.22 202.845 1209.62 202.736 1209.13 202.995L1202.5 206.489C1200.73 207.419 1198.6 207.301 1196.95 206.181L1190.74 201.976C1190.28 201.664 1189.67 201.705 1189.26 202.075C1188.84 202.445 1188.74 203.049 1188.99 203.54L1192.49 210.17C1193.42 211.935 1193.3 214.069 1192.18 215.721L1187.98 221.923C1187.66 222.383 1187.71 222.995 1188.08 223.409C1188.45 223.822 1189.05 223.931 1189.54 223.672L1196.17 220.178Z" fill="#F7F6FF"/>
</g>
<defs>
<clipPath id="clip0_0_61">
<rect width="6" height="6" fill="white" transform="translate(377.466 21.9414)"/>
</clipPath>
<clipPath id="clip1_0_61">
<rect width="36" height="36" fill="white" transform="translate(185 111)"/>
</clipPath>
<clipPath id="clip2_0_61">
<rect width="9" height="9" fill="white" transform="translate(393.449 125.262)"/>
</clipPath>
<clipPath id="clip3_0_61">
<rect width="9" height="9" fill="white" transform="translate(243 797)"/>
</clipPath>
<clipPath id="clip4_0_61">
<rect width="36" height="36" fill="white" transform="translate(1311.84 589.523) rotate(164.166)"/>
</clipPath>
<clipPath id="clip5_0_61">
<rect width="9" height="9" fill="white" transform="translate(1239.25 619.463) rotate(164.166)"/>
</clipPath>
<clipPath id="clip6_0_61">
<rect width="36" height="36" fill="white" transform="translate(960.839 114.522) rotate(164.166)"/>
</clipPath>
</defs>
</svg>
